<svg width="601" height="600" xmlns="http://www.w3.org/2000/svg">
 <!-- Created with Method Draw - http://github.com/duopixel/Method-Draw/ -->

 <g>
  <title>background</title>
  <rect fill="#fff" id="canvas_background" height="602" width="603" y="-1" x="-1"/>
  <g display="none" overflow="visible" y="0" x="0" height="100%" width="100%" id="canvasGrid">
   <rect fill="url(#gridpattern)" stroke-width="0" y="0" x="0" height="100%" width="100%"/>
  </g>
 </g>
 <g>
  <title>Layer 1</title>
  <!-- Created with Method Draw - http://github.com/duopixel/Method-Draw/ -->
  <g stroke="null" id="svg_27">
   <g stroke="null" transform="matrix(2.4175826647936653,0,0,2.8252896276788735,-12030.069116529827,-12852.875959736431) " id="svg_24">
    <title stroke="null" transform="translate(-3.722726821899414,0) translate(4.549999713897705,-0.3539460003376007) translate(-25.231815338134766,-12.388110160827637) translate(-9.16339111328125,0.8934159874916077) translate(99.20367431640625,-6.849522590637207) translate(111.34671783447266,-9.879800796508789) translate(191.39508056640625,-2.0452780723571777) translate(226.4751434326172,-19.72223663330078) translate(18.44260025024414,-0.5056983828544617) translate(207.57456970214844,-0.9206753373146057) translate(1.3347069025039673,0) translate(-4.004120826721191,80.02226257324219) translate(-48.7574462890625,89.07102966308594) translate(-755.3500366210938,-117.5782241821289) translate(46.570804595947266,0) translate(46.570804595947266,0) translate(46.570804595947266,0) translate(46.570804595947266,0) translate(-46.570804595947266,0) translate(-46.570804595947266,0) translate(-93.14160919189453,0) translate(-46.570804595947266,0) translate(-46.570804595947266,0) translate(-46.570804595947266,0) translate(-93.14160919189453,0) translate(-46.570804595947266,0) translate(-46.570804595947266,0) translate(-46.570804595947266,0) translate(-46.570804595947266,0) translate(-46.570804595947266,0) translate(-46.570804595947266,0) translate(-46.570804595947266,0) translate(-93.14160919189453,0) translate(-93.14160919189453,0) translate(-46.570804595947266,0) translate(-46.570804595947266,0) translate(6.910011291503906,0) translate(5815.4404296875,0) translate(0,4612.08056640625) ">background</title>
    <rect stroke="null" x="4997.16891" y="4610.82378" width="790" height="92" id="svg_22" fill="none"/>
    <g stroke="null" id="svg_21" display="none">
     <rect stroke="null" id="svg_25" width="800" height="600" x="5000.16891" y="4613.82378" stroke-width="0" fill="url(#gridpattern)"/>
    </g>
   </g>
   <g stroke="null" transform="matrix(2.4175826647936653,0,0,2.8252896276788735,-12030.069116529827,-12852.875959736431) " id="svg_26">
    <title stroke="null" transform="translate(-3.722726821899414,0) translate(4.549999713897705,-0.3539460003376007) translate(-25.231815338134766,-12.388110160827637) translate(-9.16339111328125,0.8934159874916077) translate(99.20367431640625,-6.849522590637207) translate(111.34671783447266,-9.879800796508789) translate(191.39508056640625,-2.0452780723571777) translate(226.4751434326172,-19.72223663330078) translate(18.44260025024414,-0.5056983828544617) translate(207.57456970214844,-0.9206753373146057) translate(1.3347069025039673,0) translate(-4.004120826721191,80.02226257324219) translate(-48.7574462890625,89.07102966308594) translate(-755.3500366210938,-117.5782241821289) translate(46.570804595947266,0) translate(46.570804595947266,0) translate(46.570804595947266,0) translate(46.570804595947266,0) translate(-46.570804595947266,0) translate(-46.570804595947266,0) translate(-93.14160919189453,0) translate(-46.570804595947266,0) translate(-46.570804595947266,0) translate(-46.570804595947266,0) translate(-93.14160919189453,0) translate(-46.570804595947266,0) translate(-46.570804595947266,0) translate(-46.570804595947266,0) translate(-46.570804595947266,0) translate(-46.570804595947266,0) translate(-46.570804595947266,0) translate(-46.570804595947266,0) translate(-93.14160919189453,0) translate(-93.14160919189453,0) translate(-46.570804595947266,0) translate(-46.570804595947266,0) translate(6.910011291503906,0) translate(5815.4404296875,0) translate(0,4612.08056640625) ">Layer 1</title>
    <g stroke="null" id="svg_13">
     <g stroke="null" transform="matrix(0.1556258810924756,0,0,-0.1234157773912908,-3787.316299505345,-2023.5641264709298) " fill="#000000" id="svg_14">
      <path stroke="null" d="m59173.24547,-53819.46955c-54,-9 -111,-32 -152,-61c-42,-30 -82,-120 -75,-166c15,-87 93,-120 328,-138c108,-9 122,-16 91,-47c-29,-29 -110,-32 -139,-6c-17,15 -40,18 -151,18l-131,0l10,-28c14,-42 66,-100 108,-121c20,-11 64,-25 99,-31c81,-16 261,-8 325,15c63,22 119,77 142,138c48,128 -49,192 -323,212c-50,4 -95,12 -99,18c-3,5 4,19 17,29c31,25 109,24 143,-2c22,-17 40,-20 146,-20c140,0 142,2 92,82c-60,94 -242,140 -431,108z" id="svg_20"/>
      <path stroke="null" d="m59978.24547,-53824.46955c-172,-31 -265,-128 -266,-278c-1,-89 15,-137 62,-191c77,-88 185,-121 370,-114c99,4 124,9 175,32c55,25 59,26 71,10c7,-10 13,-21 13,-26c0,-4 23,-8 50,-8l50,0l0,145l0,145l-165,0l-165,0l0,-50l0,-50l48,0l47,-1l-23,-19c-27,-22 -113,-35 -172,-25c-27,5 -56,19 -78,40c-32,29 -36,39 -39,91c-5,72 19,118 74,141c53,21 149,14 190,-15c28,-20 43,-22 157,-22l125,0l-10,28c-48,138 -272,211 -514,167z" id="svg_19"/>
      <path stroke="null" d="m56463.24547,-54109.46955l0,-290l120,0l120,0l0,115l0,115l180,0l180,0l0,55l0,55l-177,2l-178,3l-3,43l-3,42l210,0l211,0l0,75l0,75l-330,0l-330,0l0,-290z" id="svg_18"/>
      <path stroke="null" d="m58053.24547,-54108.46955l0,-291l243,0c314,0 424,18 501,82c60,49 79,98 79,205c0,117 -24,172 -95,220c-81,54 -158,65 -460,71l-268,4l0,-291zm481,129c19,-5 48,-23 64,-40c24,-26 28,-37 28,-87c0,-32 -5,-69 -12,-81c-22,-41 -92,-64 -213,-70l-108,-5l0,147l0,146l103,0c56,0 118,-5 138,-10z" id="svg_17"/>
      <path stroke="null" d="m60613.24547,-54109.46955l0,-290l120,0l120,0l0,191c0,106 4,189 9,187c5,-1 79,-87 165,-190l156,-188l145,0l145,0l0,290l0,290l-120,0l-120,0l0,-191c0,-113 -4,-189 -9,-187c-5,2 -80,87 -166,191l-157,187l-144,0l-144,0l0,-290z" id="svg_16"/>
      <path stroke="null" d="m57393.24547,-54114.46955l0,-45l185,0l185,0l0,45l0,45l-185,0l-185,0l0,-45z" id="svg_15"/>
     </g>
    </g>
   </g>
  </g>
 </g>
</svg>